<svg width="50" height="50" viewBox="0 0 50 50" fill="none" xmlns="http://www.w3.org/2000/svg">
<circle cx="25" cy="25" r="22" fill="white"/>
<path d="M19.9978 11.3C15.7529 11.3 12.3 14.7562 12.3 19.0022V30.0022C12.3 34.2471 15.7561 37.7001 20.0021 37.7001H31.0021C35.247 37.7001 38.7 34.2439 38.7 29.9979V18.9979C38.7 14.753 35.2438 11.3 30.9978 11.3H19.9978ZM33.2 15.7C33.8072 15.7 34.3 16.1928 34.3 16.8C34.3 17.4072 33.8072 17.9 33.2 17.9C32.5928 17.9 32.1 17.4072 32.1 16.8C32.1 16.1928 32.5928 15.7 33.2 15.7ZM25.5 17.9C29.1399 17.9 32.1 20.8601 32.1 24.5C32.1 28.1399 29.1399 31.1 25.5 31.1C21.8601 31.1 18.9 28.1399 18.9 24.5C18.9 20.8601 21.8601 17.9 25.5 17.9ZM25.5 20.1C24.333 20.1 23.2139 20.5636 22.3887 21.3888C21.5636 22.2139 21.1 23.3331 21.1 24.5C21.1 25.667 21.5636 26.7862 22.3887 27.6113C23.2139 28.4365 24.333 28.9 25.5 28.9C26.6669 28.9 27.7861 28.4365 28.6113 27.6113C29.4364 26.7862 29.9 25.667 29.9 24.5C29.9 23.3331 29.4364 22.2139 28.6113 21.3888C27.7861 20.5636 26.6669 20.1 25.5 20.1Z" fill="#004A8C"/>
</svg>
