<svg width="50" height="50" viewBox="0 0 50 50" fill="none" xmlns="http://www.w3.org/2000/svg">
<path d="M25 2C12.318 2 2 12.317 2 25C2 37.683 12.318 48 25 48C37.682 48 48 37.683 48 25C48 12.317 37.682 2 25 2ZM18 35H14V20H18V35ZM16 17C14.895 17 14 16.105 14 15C14 13.895 14.895 13 16 13C17.105 13 18 13.895 18 15C18 16.105 17.105 17 16 17ZM37 35H33V30V27.5C33 25.575 31.425 24 29.5 24C27.575 24 26 25.575 26 27.5V35H22V20H26V21.816C27.168 20.694 28.752 20 30.5 20C34.09 20 37 22.91 37 26.5V35Z" fill="white"/>
</svg>
