<svg width="214" height="99" viewBox="0 0 214 99" fill="none" xmlns="http://www.w3.org/2000/svg">
<path d="M22.1625 67.5754C21.439 67.5754 20.6018 67.4781 19.6526 67.2853V62.4338C21.2611 62.2739 22.0653 61.4678 22.0653 60.0205L22.09 50.2929C22.09 47.8796 22.5168 45.819 23.3689 44.1128C24.2209 42.4067 25.3317 41.0632 26.6995 40.0824C28.5173 38.7784 30.6251 38.1026 33.023 38.0547C35.7735 38.0547 38.1944 38.996 40.2874 40.8786C42.331 38.996 44.7519 38.0547 47.5519 38.0547C49.8838 38.0547 51.9916 38.7306 53.8753 40.0824C55.2432 41.0648 56.3523 42.4083 57.206 44.1128C58.058 45.819 58.4848 47.8779 58.4848 50.2929V67.2869H51.1973V50.2913C51.1973 49.0203 50.9567 47.9983 50.4738 47.2251C49.7338 46.0828 48.7599 45.5107 47.5535 45.5107C46.362 45.5107 45.4062 46.0828 44.681 47.2251C44.1817 47.9983 43.9328 49.0203 43.9328 50.2913V67.2853H36.6453V50.2913C36.6453 49.0203 36.3964 47.9983 35.8971 47.2251C35.1571 46.0828 34.1914 45.5107 33.0015 45.5107C31.81 45.5107 30.8459 46.0828 30.106 47.2251C29.6066 47.9983 29.3578 49.0203 29.3578 50.2913V60.0188C29.3578 62.9317 28.5206 65.0005 26.8478 66.222C25.5887 67.1237 24.0281 67.5754 22.1625 67.5754Z" fill="#004A8C"/>
<path d="M79.8876 67.2853C77.1849 67.2853 74.871 66.7545 72.9495 65.6929C71.0262 64.6312 69.487 63.2383 68.3284 61.5173C66.5914 58.9424 65.7229 56.0131 65.7229 52.731C65.7229 49.4638 66.5914 46.5361 68.3284 43.9447C69.487 42.2072 71.0279 40.806 72.9495 39.7444C74.871 38.6828 77.1849 38.152 79.8876 38.152C82.5739 38.152 84.8828 38.6828 86.8142 39.7444C88.7441 40.806 90.2899 42.2072 91.4485 43.9447C93.169 46.5031 94.0309 49.4324 94.0309 52.731C94.0309 56.0296 93.1706 58.9589 91.4485 61.5173C90.2899 63.2399 88.7457 64.6312 86.8142 65.6929C84.8828 66.7545 82.5739 67.2853 79.8876 67.2853ZM79.8876 60.0188C81.4318 60.0188 82.7189 59.6644 83.7489 58.9572C84.7789 58.25 85.5502 57.3368 86.066 56.2175C86.5802 55.0998 86.8389 53.936 86.8389 52.7294C86.8389 51.5062 86.5819 50.3391 86.066 49.2297C85.5502 48.1186 84.7789 47.2103 83.7489 46.5015C82.7189 45.7943 81.4318 45.4399 79.8876 45.4399C78.4077 45.4399 77.1733 45.7943 76.1829 46.5015C75.1941 47.2103 74.4492 48.1186 73.9498 49.2297C73.4505 50.3407 73.2016 51.5078 73.2016 52.7294C73.2016 53.936 73.4505 55.0998 73.9498 56.2175C74.4475 57.3368 75.1924 58.2484 76.1829 58.9572C77.1733 59.6661 78.4077 60.0188 79.8876 60.0188Z" fill="#004A8C"/>
<path d="M114.18 67.2852H106.892L96.6364 38.1256H104.455L110.536 55.8433L116.592 38.1256H124.41L114.18 67.2852Z" fill="#004A8C"/>
<path d="M143.115 60.2364C146.108 60.2364 149.101 59.3512 152.092 57.5808V62.3119C149.406 65.6269 145.906 67.2853 141.594 67.2853C138.908 67.2853 136.462 66.6292 134.257 65.3187C132.052 64.0065 130.296 62.2492 128.985 60.0436C127.674 57.8396 127.018 55.3933 127.018 52.7046C127.018 50.0341 127.674 47.596 128.985 45.3904C130.297 43.1864 132.054 41.4275 134.257 40.117C136.461 38.8048 138.906 38.1487 141.594 38.1487C143.524 38.1487 145.185 38.4108 146.578 38.9334C147.969 39.4559 149.127 40.1516 150.054 41.022C150.978 41.8907 151.71 42.8567 152.25 43.9183C152.789 44.9799 153.172 46.063 153.396 47.1658C153.622 48.2686 153.734 49.3104 153.734 50.2913V55.1427H134.717C135.329 58.5385 138.127 60.2364 143.115 60.2364ZM146.156 48.6741C146.011 48.1911 145.77 47.6999 145.433 47.2021C145.095 46.7042 144.617 46.2806 143.997 45.9344C143.378 45.5882 142.577 45.4151 141.596 45.4151C140.325 45.4151 139.162 45.7086 138.109 46.2971C137.054 46.8839 136.199 47.6768 135.538 48.6741H146.156Z" fill="#004A8C"/>
<path d="M165.486 42.011L159.742 40.201C161.512 36.7409 162.397 32.5324 162.397 27.5771V27.0941L169.902 28.5909V28.6882C169.902 33.1126 168.431 37.5536 165.486 42.011Z" fill="#004A8C"/>
<path d="M183.586 67.2853C180.143 67.2853 177.078 65.8775 174.392 63.0603V58.3292C176.854 59.8095 179.837 60.5497 183.345 60.5497C184.825 60.5497 185.931 60.3172 186.664 59.8491C187.396 59.3825 187.762 58.8748 187.762 58.3275C187.762 57.7638 187.396 57.2494 186.664 56.7829C185.933 56.3164 184.825 56.0263 183.345 55.9142C181.237 55.6092 179.5 54.9696 178.133 53.9954C176.765 53.0211 175.776 51.8672 175.164 50.532C174.649 49.4209 174.392 48.2785 174.392 47.1048C174.392 45.3986 174.906 43.8145 175.936 42.349C176.804 41.1093 178.052 40.1005 179.677 39.3191C181.302 38.5394 183.304 38.1487 185.685 38.1487C188.212 38.1487 190.423 38.7356 192.322 39.9109V46.6218C190.376 45.4481 188.162 44.8596 185.685 44.8596C184.205 44.8596 183.1 45.0937 182.368 45.5602C181.636 46.0267 181.27 46.5427 181.27 47.1048C181.27 47.6686 181.636 48.1829 182.368 48.6494C183.1 49.1159 184.205 49.4061 185.685 49.5182C187.793 49.8248 189.53 50.4644 190.898 51.437C192.266 52.4112 193.263 53.5651 193.891 54.9004C194.405 56.0114 194.664 57.1456 194.664 58.3045C194.664 60.5101 193.734 62.5575 191.877 64.4483C190.016 66.3407 187.253 67.2853 183.586 67.2853Z" fill="#004A8C"/>
</svg>
